<svg width="302" height="44" viewBox="0 0 302 44" fill="none" xmlns="http://www.w3.org/2000/svg">
<path d="M8.70508 9.29388H12.8567V18.8122H18.0798V9.29388H22.2315V32.8204H18.1021V22.6735H12.8567V32.8204H8.70508V9.29388Z" fill="white"/>
<path d="M30.2223 13.1327C30.2223 10.7755 32.1642 8.86737 34.4632 8.86737H40.4006C42.7442 8.86737 44.6861 10.7755 44.6861 13.1327V28.9592C44.6861 31.2715 42.7442 33.2245 40.4006 33.2245H34.4632C32.1642 33.2245 30.2223 31.2715 30.2223 28.9592V13.1327ZM35.6909 29.3633H39.1506C39.9765 29.3633 40.5122 28.6898 40.5122 27.949V14.1204C40.5122 13.3796 39.9765 12.7061 39.1506 12.7061H35.6909C34.9097 12.7061 34.3293 13.3796 34.3293 14.1204V27.949C34.3516 28.7123 34.9097 29.3633 35.6909 29.3633Z" fill="white"/>
<path d="M51.8511 9.29388H55.9805V27.9265C55.9805 28.6673 56.5608 29.3408 57.2974 29.3408H59.9312C60.6678 29.3408 61.2482 28.6673 61.2482 27.9265V9.29388H65.3775V28.9592C65.3775 31.2714 63.4802 33.2245 61.1366 33.2245H56.1144C53.7707 33.2245 51.8735 31.2714 51.8735 28.9592V9.29388H51.8511Z" fill="white"/>
<path d="M72.8773 26.0184H76.8727V27.9715C76.8727 28.7123 77.4531 29.3857 78.2343 29.3857H80.5333C81.3145 29.3857 81.8949 28.7123 81.8949 27.9715V24.2898C81.8949 23.7959 81.5601 23.2572 81.1137 23.1L75.3772 21.551C73.8594 21.147 72.855 19.6429 72.855 18.0266V13.1327C72.855 10.8204 74.7969 8.86737 77.1406 8.86737H81.694C84.0377 8.86737 85.9796 10.8204 85.9796 13.1327V16.0735H81.9842V14.1204C81.9842 13.3796 81.4038 12.7061 80.6226 12.7061H78.3236C77.5423 12.7061 76.962 13.3796 76.962 14.1204V17.398C76.962 17.8919 77.2968 18.4755 77.7432 18.5878L83.4573 20.1143C84.9752 20.5184 85.9796 22.0225 85.9796 23.5939V28.9592C85.9796 31.2715 84.0377 33.2245 81.694 33.2245H77.1629C74.8192 33.2245 72.8773 31.2715 72.8773 28.9592V26.0184Z" fill="white"/>
<path d="M94.4615 9.29388H105.8V12.8857H98.6355V19.0143H103.814V22.449H98.6355V28.9143H106.046V32.798H94.4838V9.29388H94.4615Z" fill="white"/>
<path d="M219.592 9.29388H223.676L229.815 32.8204H225.574L224.458 27.9714H218.81L217.739 32.8204H213.498L219.592 9.29388ZM223.699 24.5816L221.645 15.4674L219.547 24.5816H223.699Z" fill="white"/>
<path d="M195.24 13.4245C195.24 11.0674 197.137 9.11432 199.481 9.11432H204.213C206.556 9.11432 208.498 11.0674 208.498 13.4245V17.0164H204.458V14.3674C204.458 13.6266 203.878 12.9531 203.097 12.9531H200.664C199.927 12.9531 199.347 13.6266 199.347 14.3674V28.196C199.347 28.9368 199.927 29.6102 200.664 29.6102H203.097C203.878 29.6102 204.458 28.9368 204.458 28.196V25.6368H208.498V29.1837C208.498 31.5408 206.556 33.449 204.213 33.449H199.481C197.137 33.449 195.24 31.5408 195.24 29.1837V13.4245Z" fill="white"/>
<path d="M245.328 23.7959L250.015 32.8204H245.484L241.109 23.998H240.372V32.8204H236.243V9.29388H243.988C246.332 9.29388 248.274 11.202 248.274 13.5592V19.7327C248.296 21.6408 247.024 23.2572 245.328 23.7959ZM242.783 20.6082C243.609 20.6082 244.145 19.9347 244.145 19.1939V14.3225C244.145 13.5816 243.609 12.9082 242.783 12.9082H240.395V20.6082H242.783Z" fill="white"/>
<path d="M256.8 32.8204V9.29388H266.443C268.787 9.29388 270.729 11.202 270.729 13.5592V28.5551C270.729 30.8674 268.787 32.8204 266.443 32.8204H256.8ZM265.305 28.9592C266.086 28.9592 266.666 28.2857 266.666 27.5449V14.5694C266.666 13.8286 266.086 13.1551 265.305 13.1551H260.907V28.9592H265.305Z" fill="white"/>
<path d="M278.072 26.0409H282.067V27.9939C282.067 28.7347 282.648 29.4082 283.429 29.4082H285.728C286.509 29.4082 287.09 28.7347 287.09 27.9939V24.3123C287.09 23.8184 286.755 23.2796 286.308 23.1225L280.572 21.5511C279.054 21.147 278.05 19.6429 278.05 18.0266V13.1551C278.05 10.8429 279.992 8.88983 282.335 8.88983H286.866C289.21 8.88983 291.152 10.8429 291.152 13.1551V16.096H287.157V14.1429C287.157 13.4021 286.576 12.7286 285.795 12.7286H283.496C282.715 12.7286 282.134 13.4021 282.134 14.1429V17.4204C282.134 17.9143 282.469 18.498 282.916 18.6102L288.63 20.1368C290.148 20.5409 291.152 22.0449 291.152 23.6164V28.9592C291.152 31.2715 289.21 33.2245 286.866 33.2245H282.358C280.014 33.2245 278.072 31.2715 278.072 28.9592V26.0409Z" fill="white"/>
<path d="M165.129 17.2184C165.352 15.4674 166.982 14.0082 168.767 14.0082H171.781C173.566 14.0082 174.839 15.4674 174.615 17.2184L173.321 27.2531C173.098 28.9592 171.423 30.4633 169.638 30.4633H166.625C164.839 30.4633 163.611 28.9816 163.834 27.2531L165.129 17.2184ZM167.361 28.398H169.482C170.33 28.398 171.089 27.6572 171.2 26.8714L172.428 17.6C172.54 16.8143 171.937 16.0286 171.089 16.0286H168.968C168.142 16.0286 167.361 16.8143 167.249 17.6L166.022 26.8714C165.91 27.6572 166.558 28.398 167.361 28.398Z" fill="white"/>
<path d="M179.303 16.2755L179.571 14.4122H181.49L182.137 9.51837C182.361 7.76735 184.057 6.30817 185.82 6.30817H188.276L188.008 8.28368H186.133C185.307 8.28368 184.481 9.02449 184.369 9.81021L183.767 14.3898H186.825L186.557 16.2531H183.477L180.954 35.402C180.731 37.1531 179.035 38.6122 177.294 38.6122H175.664L175.932 36.6367H176.981C177.807 36.6367 178.611 35.8959 178.722 35.1102L181.222 16.2755H179.303Z" fill="white"/>
<path d="M157.027 19.8898H136.581V32.798H157.027V19.8898Z" fill="#144A74"/>
<path d="M136.849 30.9572H112.966V32.798H136.849V30.9572Z" fill="#881218"/>
<path d="M136.849 27.3428H112.966V29.1837H136.849V27.3428Z" fill="#881218"/>
<path d="M136.849 23.7286H112.966V25.5694H136.849V23.7286Z" fill="#881218"/>
<path d="M136.849 20.1143H112.966V21.9551H136.849V20.1143Z" fill="#881218"/>
<path d="M156.96 16.5H112.966V18.3408H156.96V16.5Z" fill="#881218"/>
<path d="M156.96 12.8857H112.966V14.7266H156.96V12.8857Z" fill="#881218"/>
<path d="M156.96 9.29388H112.966V11.1347H156.96V9.29388Z" fill="#881218"/>
<path d="M136.893 29.1837H112.876V30.9347H136.893V29.1837Z" fill="white"/>
<path d="M136.893 25.5694H112.876V27.3204H136.893V25.5694Z" fill="white"/>
<path d="M136.893 21.9775H112.876V23.7286H136.893V21.9775Z" fill="white"/>
<path d="M157.004 18.3633H112.876V20.1143H157.004V18.3633Z" fill="white"/>
<path d="M157.004 14.749H112.876V16.5H157.004V14.749Z" fill="white"/>
<path d="M157.004 11.1347H112.876V12.8857H157.004V11.1347Z" fill="white"/>
</svg>
