<svg width="68" height="68" viewBox="0 0 68 68" fill="none" xmlns="http://www.w3.org/2000/svg">
<path d="M65.4328 2.56813C63.7209 0.855784 61.6695 0 59.2795 0H8.72174C6.331 0 4.28016 0.856094 2.56782 2.56813C0.855784 4.27969 0 6.33085 0 8.72112V59.2784C0 61.6684 0.855629 63.72 2.56782 65.4317C4.28016 67.1436 6.33147 68 8.72174 68H59.2789C61.6684 68 63.7205 67.1436 65.4323 65.4317C67.1447 63.72 67.9997 61.6684 67.9997 59.2784V8.72112C67.9995 6.33038 67.1447 4.28031 65.4328 2.56813ZM24.4161 24.5036C27.0869 21.9215 30.2967 20.6298 34.045 20.6298C37.8223 20.6298 41.0465 21.9215 43.7178 24.5036C46.3892 27.0861 47.7242 30.2075 47.7242 33.8671C47.7242 37.5262 46.3892 40.6478 43.7178 43.2296C41.0465 45.8127 37.8233 47.1042 34.045 47.1042C30.2968 47.1042 27.0874 45.8116 24.4161 43.2296C21.7447 40.6475 20.4092 37.5262 20.4092 33.8671C20.4092 30.2075 21.7447 27.0863 24.4161 24.5036ZM60.2978 57.464C60.2978 58.2308 60.0314 58.8725 59.5006 59.3893C58.9683 59.9056 58.3347 60.164 57.5962 60.164H10.2714C9.50418 60.164 8.86176 59.9056 8.34571 59.3893C7.82889 58.8736 7.57072 58.2308 7.57072 57.464V28.7755H13.8127C13.2227 30.6352 12.9276 32.5686 12.9276 34.5751C12.9276 40.2431 14.9934 45.0751 19.1253 49.0751C23.2577 53.0735 28.2306 55.0736 34.0448 55.0736C37.8816 55.0736 41.4231 54.1583 44.6707 52.3286C47.9172 50.4978 50.4833 48.0118 52.3735 44.8683C54.2626 41.7248 55.2071 38.2936 55.2071 34.5753C55.2071 32.5688 54.911 30.6358 54.3209 28.7757H60.2981V57.4642H60.2978V57.464ZM60.2978 17.9291C60.2978 18.7851 60.0027 19.5083 59.4115 20.0984C58.8214 20.6891 58.0987 20.984 57.2423 20.984H49.5395C48.684 20.984 47.9602 20.6889 47.3702 20.0984C46.78 19.5083 46.4851 18.7851 46.4851 17.9291V10.6251C46.4851 9.79864 46.78 9.08303 47.3702 8.47783C47.9603 7.87293 48.6842 7.5701 49.5395 7.5701H57.2423C58.0987 7.5701 58.8216 7.87278 59.4115 8.47783C60.0025 9.08303 60.2978 9.79864 60.2978 10.6251V17.9291Z" fill="#DD902F"/>
</svg>
