<svg width="81" height="14" viewBox="0 0 81 14" fill="none" xmlns="http://www.w3.org/2000/svg">
<path d="M10.0321 5.83442L8.11577 0.919617L6.19966 5.83442H0L5.01603 8.87177L3.09991 13.7872L8.11577 10.7486L13.1318 13.7872L11.2157 8.87177L16.2317 5.83442H10.0321Z" fill="#B4131D"/>
<path d="M26.3071 5.83442L24.391 0.919617L22.4747 5.83442H16.275L21.291 8.87177L19.3749 13.7872L24.391 10.7486L29.407 13.7872L27.4907 8.87177L32.5067 5.83442H26.3071Z" fill="#B4131D"/>
<path d="M42.5821 5.83442L40.666 0.919617L38.7499 5.83442H32.55L37.5661 8.87177L35.65 13.7872L40.666 10.7486L45.682 13.7872L43.7659 8.87177L48.7818 5.83442H42.5821Z" fill="#B4131D"/>
<path d="M58.8571 5.83442L56.941 0.919617L55.0249 5.83442H48.8253L53.8413 8.87177L51.925 13.7872L56.941 10.7486L61.9571 13.7872L60.0409 8.87177L65.057 5.83442H58.8571Z" fill="#B4131D"/>
<path d="M72.8843 0.919617L70.968 5.83442H64.7683L69.7843 8.87177L67.8682 13.7872L72.8843 10.7486L77.9001 13.7872L75.984 8.87177L81 5.83442H74.8004L72.8843 0.919617Z" fill="#D7D7D7"/>
</svg>
