<svg width="69" height="69" viewBox="0 0 69 69" fill="none" xmlns="http://www.w3.org/2000/svg">
<path d="M34.8557 16.3057C25.0611 16.3057 17.1269 24.1851 17.1269 33.925C17.1269 37.7553 18.3854 41.3667 20.5194 44.2668L18.276 50.833L25.1158 48.6443C27.9064 50.5047 31.299 51.5444 34.9104 51.5444C44.705 51.5444 52.6939 43.6649 52.6939 33.925C52.6392 24.1851 44.6503 16.3057 34.8557 16.3057ZM45.2522 41.2026C44.8144 42.4064 42.6804 43.5555 41.7502 43.6649C40.82 43.7743 40.82 44.431 35.5123 42.4064C30.2593 40.3271 26.9215 35.0194 26.6479 34.6364C26.3743 34.308 24.5139 31.8457 24.5139 29.3287C24.5139 26.8116 25.8271 25.5531 26.3196 25.0606C26.8121 24.5682 27.3592 24.404 27.6876 24.404C28.0159 24.404 28.3989 24.4587 28.6725 24.4587C29.0008 24.4587 29.3838 24.2946 29.8216 25.3342C30.2593 26.3739 31.299 28.8909 31.4084 29.1645C31.5179 29.4381 31.6273 29.7117 31.4631 30.04C31.299 30.3683 31.1895 30.5872 30.9707 30.9155C30.6971 31.1891 30.4235 31.5721 30.2046 31.791C29.931 32.0646 29.6574 32.3382 29.9857 32.8306C30.314 33.3231 31.3537 35.0194 32.8858 36.3873C34.8557 38.1383 36.5519 38.6855 37.0444 38.9591C37.5369 39.2327 37.8652 39.178 38.1388 38.8497C38.4671 38.5214 39.452 37.3723 39.7803 36.8251C40.1086 36.3326 40.4917 36.3873 40.9294 36.5515C41.4219 36.7157 43.9389 37.9742 44.4861 38.2478C44.9786 38.5214 45.3616 38.6308 45.4711 38.8497C45.6352 38.9591 45.6352 39.9988 45.2522 41.2026Z" fill="#DD902F"/>
<path d="M51.6542 0H17.291C7.77002 0 0 7.77002 0 17.291V51.709C0 61.1752 7.77002 68.9453 17.291 68.9453H51.709C61.23 68.9453 69 61.1752 69 51.6542V17.291C68.9453 7.77002 61.1753 0 51.6542 0ZM34.8557 54.8826C31.1348 54.8826 27.6875 53.9524 24.6233 52.2561L12.9136 55.977L16.7439 44.7597C14.8287 41.586 13.7343 37.8652 13.7343 33.9255C13.7343 22.3251 23.2006 12.9683 34.8557 12.9683C46.5107 12.9683 55.977 22.3251 55.977 33.9255C55.977 45.5258 46.5107 54.8826 34.8557 54.8826Z" fill="#DD902F"/>
</svg>
